<?xml version="1.0" encoding="iso-8859-1"?>
<!-- Uploaded to: SVG Repo, www.svgrepo.com, Generator: SVG Repo Mixer Tools -->
<svg height="800px" width="800px" version="1.1" id="Layer_1" xmlns="http://www.w3.org/2000/svg" xmlns:xlink="http://www.w3.org/1999/xlink" 
	 viewBox="0 0 512 512" xml:space="preserve">
<g>
	<path style="fill:#894BA2;" d="M365.199,156.778H264.315v-55.985c0-4.593-3.722-8.315-8.315-8.315s-8.315,3.722-8.315,8.315v55.985
		H141.647c-4.593,0-8.315,3.722-8.315,8.315v57.648c0,4.593,3.722,8.315,8.315,8.315s8.315-3.722,8.315-8.315v-49.334h206.923
		v49.334c0,4.593,3.722,8.315,8.315,8.315c4.593,0,8.315-3.722,8.315-8.315v-57.648C373.514,160.5,369.792,156.778,365.199,156.778z
		"/>
	<path style="fill:#894BA2;" d="M442.803,351.342h-69.289v-53.768c0-4.593-3.722-8.315-8.315-8.315
		c-4.593,0-8.315,3.722-8.315,8.315v53.768H149.961v-53.768c0-4.593-3.722-8.315-8.315-8.315c-4.593,0-8.315,3.722-8.315,8.315
		v53.768H69.197c-4.593,0-8.315,3.722-8.315,8.315v66.135c0,4.593,3.722,8.315,8.315,8.315s8.315-3.722,8.315-8.315v-57.82h167.597
		v54.323c0,4.593,3.722,8.315,8.315,8.315s8.315-3.722,8.315-8.315v-54.323h172.75v58.203c0,4.593,3.722,8.315,8.315,8.315
		c4.593,0,8.315-3.722,8.315-8.315v-66.517C451.118,355.063,447.396,351.342,442.803,351.342z"/>
</g>
<path style="fill:#F77935;" d="M202.53,214.427H80.764c-4.593,0-8.315,3.722-8.315,8.315v73.169c0,4.593,3.722,8.315,8.315,8.315
	H202.53c4.593,0,8.315-3.722,8.315-8.315v-73.169C210.845,218.148,207.122,214.427,202.53,214.427z"/>
<path style="fill:#D9510D;" d="M202.53,214.427h-33.259v89.798h33.259c4.593,0,8.315-3.722,8.315-8.315v-73.169
	C210.845,218.148,207.122,214.427,202.53,214.427z"/>
<path style="fill:#FFDB56;" d="M355.776,3.788H156.224c-4.593,0-8.315,3.722-8.315,8.315v88.69c0,4.593,3.722,8.315,8.315,8.315
	h199.552c4.593,0,8.315-3.722,8.315-8.315v-88.69C364.091,7.51,360.369,3.788,355.776,3.788z"/>
<path style="fill:#FBA806;" d="M355.776,3.788h-33.259v105.319h33.259c4.593,0,8.315-3.722,8.315-8.315v-88.69
	C364.091,7.51,360.369,3.788,355.776,3.788z"/>
<path style="fill:#F77935;" d="M426.082,214.427H304.317c-4.593,0-8.315,3.722-8.315,8.315v73.169c0,4.593,3.722,8.315,8.315,8.315
	h121.765c4.593,0,8.315-3.722,8.315-8.315v-73.169C434.396,218.148,430.675,214.427,426.082,214.427z"/>
<path style="fill:#D9510D;" d="M426.082,214.427h-32.15v89.798h32.15c4.593,0,8.315-3.722,8.315-8.315v-73.169
	C434.396,218.148,430.675,214.427,426.082,214.427z"/>
<path style="fill:#3FC8F2;" d="M503.685,418.413H381.921c-4.593,0-8.315,3.722-8.315,8.315v73.169c0,4.593,3.722,8.315,8.315,8.315
	h121.765c4.593,0,8.315-3.722,8.315-8.315v-73.169C512,422.135,508.278,418.413,503.685,418.413z"/>
<path style="fill:#0DAACE;" d="M503.685,418.413h-33.167v89.798h33.167c4.593,0,8.315-3.722,8.315-8.315v-73.169
	C512,422.135,508.278,418.413,503.685,418.413z"/>
<path style="fill:#3FC8F2;" d="M314.306,418.413H192.54c-4.593,0-8.315,3.722-8.315,8.315v73.169c0,4.593,3.722,8.315,8.315,8.315
	h121.766c4.593,0,8.315-3.722,8.315-8.315v-73.169C322.621,422.135,318.898,418.413,314.306,418.413z"/>
<path style="fill:#0DAACE;" d="M314.306,418.413h-32.253v89.798h32.253c4.593,0,8.315-3.722,8.315-8.315v-73.169
	C322.621,422.135,318.898,418.413,314.306,418.413z"/>
<path style="fill:#3FC8F2;" d="M130.079,418.413H8.315c-4.593,0-8.315,3.722-8.315,8.315v73.169c0,4.593,3.722,8.315,8.315,8.315
	h121.765c4.593,0,8.315-3.722,8.315-8.315v-73.169C138.394,422.135,134.672,418.413,130.079,418.413z"/>
<path style="fill:#0DAACE;" d="M130.079,418.413H96.822v89.798h33.258c4.593,0,8.315-3.722,8.315-8.315v-73.169
	C138.394,422.135,134.672,418.413,130.079,418.413z"/>
</svg>