<?xml version="1.0" encoding="iso-8859-1"?>
<!-- Uploaded to: SVG Repo, www.svgrepo.com, Generator: SVG Repo Mixer Tools -->
<svg height="800px" width="800px" version="1.1" id="Layer_1" xmlns="http://www.w3.org/2000/svg" xmlns:xlink="http://www.w3.org/1999/xlink" 
	 viewBox="0 0 512.002 512.002" xml:space="preserve">
<circle style="fill:#FEE187;" cx="256.001" cy="256" r="256"/>
<path style="fill:#FFC61B;" d="M505.867,311.88L293.065,99.078l-40.512,46.016v43.372h-29.667l29.667,29.667v36.717H149.694
	l-2.243,4.022h-21.318v38.226l-36.78,65.953L237.643,511.34c6.065,0.429,12.185,0.662,18.358,0.662
	C378.19,512,480.369,426.387,505.867,311.88z"/>
<path style="fill:#273B7A;" d="M370.21,248.242H263.758v-77.576h-15.515v77.576H141.792c-16.872,0-30.599,13.727-30.599,30.599
	v34.047h15.515v-34.047c0-8.318,6.766-15.084,15.084-15.084h106.451v49.131h15.515v-49.131H370.21
	c8.318,0,15.084,6.766,15.084,15.084v34.047h15.515v-34.047C400.809,261.97,387.081,248.242,370.21,248.242z"/>
<path style="fill:#121149;" d="M370.21,248.242H263.758v-77.576h-8.332v142.222h8.332v-49.131H370.21
	c8.318,0,15.084,6.766,15.084,15.084v34.047h15.515v-34.047C400.809,261.97,387.081,248.242,370.21,248.242z"/>
<circle style="fill:#FF314F;" cx="256.001" cy="341.333" r="37.064"/>
<circle style="fill:#A30F44;" cx="392.62" cy="341.333" r="37.064"/>
<circle style="fill:#FF314F;" cx="119.381" cy="341.333" r="37.064"/>
<g>
	<circle style="fill:#A30F44;" cx="256.001" cy="142.222" r="56.889"/>
	<path style="fill:#A30F44;" d="M256.001,304.269c-0.193,0-0.381,0.026-0.574,0.029v74.069c0.193,0.003,0.381,0.029,0.574,0.029
		c20.47,0,37.064-16.594,37.064-37.064C293.065,320.864,276.47,304.269,256.001,304.269z"/>
</g>
<path style="fill:#720733;" d="M256.001,85.333c-0.193,0-0.383,0.012-0.574,0.014v113.748c0.191,0.002,0.381,0.014,0.574,0.014
	c31.418,0,56.889-25.471,56.889-56.889S287.419,85.333,256.001,85.333z"/>
</svg>