<?xml version="1.0" encoding="utf-8"?>
<svg fill="#00ccff" width="800px" height="800px" viewBox="0 -20 110 110" xmlns="http://www.w3.org/2000/svg">
  <path id="_diagram" data-name="
diagram" d="M1036.776,782.122c2.837,0,5.673-.038,8.51.019,1.188.023,2.37.266,3.559.375,3.027.279,4.91,2.122,6.287,4.621a5.542,5.542,0,0,1,.616,1.843c.52,3.554.985,7.115,1.475,10.672a6.277,6.277,0,0,0,.192.957.968.968,0,0,0,.964.737c4.25-.07,8.5-.169,12.749-.245a13.822,13.822,0,0,1,2.286.077,2.92,2.92,0,0,1,2.583,2.917c-.247,5,.249,10.026-.44,15.02-.328,2.38-1.176,3.539-3.549,4a29.52,29.52,0,0,1-5.183.611c-5.126.071-10.255.019-15.382-.006a13.322,13.322,0,0,1-2.274-.2,4.6,4.6,0,0,1-3.97-4.46c-.4-3.911-.349-7.838-.462-11.759-.032-1.191-.2-2.378-.256-3.568a6.3,6.3,0,0,1,.119-1.592,1.471,1.471,0,0,1,1.61-1.312c.98.007,1.957.112,2.936.162.435.024.872.041,1.307.025a.781.781,0,0,0,.813-.821,11.334,11.334,0,0,0-.063-2.933,29.179,29.179,0,0,1-.693-7.137,1.356,1.356,0,0,0-1.345-1.54c-3.013-.444-6.031-.856-9.048-1.286-2.263-.321-4.528-.628-6.785-.981a81.459,81.459,0,0,0-14.034-.458.855.855,0,0,0-.858.812,3.479,3.479,0,0,0-.058.649,100.971,100.971,0,0,0,.706,12.068c.106.665.4,1,1.049,1,2.507,0,5.016-.029,7.524-.064,2.072-.031,4.144-.137,6.216-.112a2.943,2.943,0,0,1,3.071,2.764,14.345,14.345,0,0,1,.049,1.959q-.086,6.54-.182,13.082a3.214,3.214,0,0,1-3.018,3.15c-.653.027-1.308.037-1.962.042-6.216.044-12.427.162-18.629.659-1.954.157-3.926.146-5.888.122-2.205-.026-2.758-.607-2.719-2.7.023-1.2.091-2.4.148-3.595a34.908,34.908,0,0,0-.582-10.4,10.449,10.449,0,0,1-.23-2.6c.011-1.68.734-2.394,2.387-2.412,1.855-.018,3.707.008,5.562.005a4.649,4.649,0,0,0,1.3-.1,1.035,1.035,0,0,0,.642-.615,26.822,26.822,0,0,0,.608-3.865c.14-2.941.159-5.888.216-8.831a.844.844,0,0,0-.756-.886,2.36,2.36,0,0,0-.651-.041c-.758.055-1.523.085-2.275.2a96.646,96.646,0,0,1-17.216,1.522,8.148,8.148,0,0,0-6.183,2.441,3.109,3.109,0,0,0-1.04,2.315c0,1.963-.066,3.928-.007,5.89.03,1.047-.4,2.174.384,3.136.972.028,1.942.061,2.915.079,1.635.031,3.273.019,4.906.093a1.964,1.964,0,0,1,2.154,1.975,8.274,8.274,0,0,1,.084,1.3c-.154,3.965.812,7.779,1.543,11.623.223,1.177.517,2.341.726,3.519a3.306,3.306,0,0,1-2.713,3.8,1.979,1.979,0,0,1-.324.034c-6.846.076-13.677,1.114-20.546.188a57.1,57.1,0,0,0-6.212-.087c-3.2-.077-3.477-.4-3.431-3.676.056-4.037.114-8.072.146-12.109a12.405,12.405,0,0,1,.495-3.535c.686-2.287.712-2.435,3.078-2.455,2.289-.022,4.579.087,6.869.139,1.419.032,2.836.091,4.254.085,1.162-.007,1.482-.346,1.485-1.618a28.66,28.66,0,0,0-.333-5.855,15.231,15.231,0,0,1,.421-6.484,3.406,3.406,0,0,1,1.674-2.307,17.281,17.281,0,0,1,5.743-2.244c3.432-.573,6.855-1.192,10.283-1.781a5.676,5.676,0,0,1,1.3-.128c3.942.258,7.787-.873,11.719-.806,1.061.018,1.315-.289,1.354-1.373.061-1.636.11-3.272.135-4.907.019-1.28-.156-1.441-1.577-1.435-2.073.007-4.148.1-6.218.044a27.621,27.621,0,0,1-3.551-.447c-1.212-.192-1.676-.891-1.951-2.161-.992-4.59-1.915-9.17-1.7-13.9a9.234,9.234,0,0,1,.227-1.933,1.542,1.542,0,0,1,1.367-1.243,25.934,25.934,0,0,1,3.59-.05,62.993,62.993,0,0,0,12.07-.42,20.061,20.061,0,0,1,2.285-.119c3.928-.016,7.856-.033,11.784,0a7.312,7.312,0,0,1,2.558.324c2.858,1.117,3.013.521,3.458,3.917.226,1.733.334,3.453.444,5.186a36.938,36.938,0,0,0,.373,5.848c.549,2.473-1.186,4.068-3.805,3.884a7.255,7.255,0,0,0-2.262.029,25.6,25.6,0,0,1-6.179.468c-1.739.017-3.479.142-5.216.245a1.44,1.44,0,0,0-1.44,1.47c-.112,1.3-.242,2.6-.248,3.9-.013,2.574.022,2.542,2.47,2.708,3.262.221,6.516.53,9.778.74,1.958.128,3.924.142,5.885.206C1036.774,782.172,1036.776,782.147,1036.776,782.122Zm23.423,23.452v-.156q-4.4,0-8.808,0c-.543,0-1.087-.051-1.629-.048a1.009,1.009,0,0,0-1.059.974,10.373,10.373,0,0,0,.075,2.274,36.451,36.451,0,0,1,.5,6.49c.029.652.054,1.3.114,1.953a.772.772,0,0,0,.877.76c3.776-.7,7.589-.37,11.388-.43,2.718-.045,5.438-.012,8.157-.036.807-.009,1.15-.364,1.142-1.22a54.8,54.8,0,0,1,.487-8.775,5.29,5.29,0,0,0,.022-.976.767.767,0,0,0-.829-.8C1067.158,805.566,1063.679,805.574,1060.2,805.574Zm-38.005,11.1v-.114q2.936,0,5.872,0c.762,0,1.523.009,2.284-.019,1.517-.059,1.845-.354,1.894-1.985a35.15,35.15,0,0,1,1.158-7.71,9.357,9.357,0,0,0,.22-1.613.764.764,0,0,0-.7-.9,23.9,23.9,0,0,0-4.864.219c-4.075.6-8.164,1.26-12.312.541a10.817,10.817,0,0,0-2.277-.037,1.168,1.168,0,0,0-1.112,1.013,8.1,8.1,0,0,0-.2,1.928c.091,2.5.231,4.99.362,7.487.042.814.39,1.183,1.2,1.187C1016.54,816.685,1019.367,816.674,1022.194,816.674Zm-4.264-57.066v.048c-3.267,0-6.533.051-9.8-.012-3.616-.072-3.455-.425-3.375,3.183.024,1.087.054,2.176.161,3.256a.947.947,0,0,0,.583.672,18.044,18.044,0,0,0,3.853.442c7.4-.418,14.79-.176,22.182.1.338.013.715-.2.571-.576a13.289,13.289,0,0,1-.62-3.841,11.7,11.7,0,0,0-.3-1.6c-.343-1.6-.345-1.655-1.828-1.667C1025.548,759.587,1021.738,759.608,1017.93,759.608Zm-24.288,52.824c-.222-1.44-.405-2.727-.624-4.007a.792.792,0,0,0-.935-.683c-1.51.159-3.024.289-4.518.533a75.381,75.381,0,0,1-12.921,1.221,8.626,8.626,0,0,0-.974.063.988.988,0,0,0-.934,1.094c.176,2.05.356,4.1.592,6.142a1.194,1.194,0,0,0,.607.7,2.7,2.7,0,0,0,1.216.4c2.919.013,5.843.335,8.744-.375,2.2-.539,4.447-.934,6.68-1.356,1.053-.2,2.122-.3,3.184-.449C994.409,814.538,993.3,813.441,993.642,812.432Z" transform="translate(-966 -753.252)" fill-rule="evenodd"/>
</svg>