<?xml version="1.0" encoding="iso-8859-1"?>
<!-- Uploaded to: SVG Repo, www.svgrepo.com, Generator: SVG Repo Mixer Tools -->
<svg height="800px" width="800px" version="1.1" id="Layer_1" xmlns="http://www.w3.org/2000/svg" xmlns:xlink="http://www.w3.org/1999/xlink" 
	 viewBox="0 0 512 512" xml:space="preserve">
<g>
	<g>
		<path style="fill:#8697CB;" d="M105.931,180.966c-2.26,0-4.52-0.865-6.241-2.586l-44.138-44.138
			c-3.452-3.452-3.452-9.031,0-12.482c3.452-3.452,9.031-3.452,12.482,0l44.138,44.138c3.452,3.452,3.452,9.031,0,12.482
			C110.451,180.1,108.191,180.966,105.931,180.966"/>
		<path style="fill:#8697CB;" d="M61.793,295.724c-2.26,0-4.52-0.865-6.241-2.586c-3.452-3.452-3.452-9.031,0-12.482l44.138-44.138
			c3.452-3.452,9.031-3.452,12.482,0s3.452,9.031,0,12.482l-44.138,44.138C66.313,294.859,64.053,295.724,61.793,295.724"/>
		<path style="fill:#8697CB;" d="M441.388,331.034c-0.574,0-1.156-0.053-1.739-0.177c-4.785-0.953-7.883-5.597-6.921-10.381
			l8.828-44.138c0.945-4.785,5.579-7.901,10.381-6.921c4.785,0.953,7.883,5.597,6.921,10.381l-8.828,44.138
			C449.201,328.139,445.511,331.034,441.388,331.034"/>
		<path style="fill:#8697CB;" d="M441.37,216.276c-1.598,0-3.213-0.433-4.67-1.342l-70.621-44.138
			c-4.14-2.578-5.394-8.033-2.807-12.164c2.586-4.14,8.033-5.402,12.164-2.807l70.621,44.138c4.14,2.578,5.394,8.033,2.807,12.164
			C447.188,214.81,444.31,216.276,441.37,216.276"/>
		<path style="fill:#8697CB;" d="M167.733,216.276c-3.001,0-5.923-1.527-7.574-4.281c-2.516-4.184-1.156-9.604,3.019-12.111
			l132.414-79.448c4.184-2.516,9.613-1.156,12.111,3.019c2.516,4.184,1.156,9.604-3.019,12.111L172.27,215.014
			C170.849,215.87,169.278,216.276,167.733,216.276"/>
	</g>
	<path style="fill:#4482C3;" d="M326.621,454.621H185.379v-52.966c0-39,31.62-70.621,70.621-70.621s70.621,31.62,70.621,70.621
		V454.621z"/>
	<path style="fill:#FDD7AD;" d="M308.966,278.069c0,29.246-23.72,52.966-52.966,52.966s-52.966-23.72-52.966-52.966
		s23.72-52.966,52.966-52.966S308.966,248.823,308.966,278.069"/>
	<polygon style="fill:#24AE5F;" points="0,357.517 123.586,357.517 123.586,286.897 0,286.897 	"/>
	<polygon style="fill:#C03A2B;" points="0,128 123.586,128 123.586,57.379 0,57.379 	"/>
	<polygon style="fill:#F0C419;" points="44.138,242.759 167.724,242.759 167.724,172.138 44.138,172.138 	"/>
	<polygon style="fill:#24AE5F;" points="300.138,163.31 441.379,163.31 441.379,92.69 300.138,92.69 	"/>
	<polygon style="fill:#C03A2B;" points="370.759,278.069 512,278.069 512,207.448 370.759,207.448 	"/>
	<polygon style="fill:#F0C419;" points="397.241,392.828 485.517,392.828 485.517,322.207 397.241,322.207 	"/>
</g>
</svg>