<?xml version="1.0" encoding="iso-8859-1"?>
<!-- Uploaded to: SVG Repo, www.svgrepo.com, Generator: SVG Repo Mixer Tools -->
<svg height="800px" width="800px" version="1.1" id="Layer_1" xmlns="http://www.w3.org/2000/svg" xmlns:xlink="http://www.w3.org/1999/xlink" 
	 viewBox="0 0 512 512" xml:space="preserve">
<g>
	<g>
		<path style="fill:#95A5A5;" d="M256,450.207c-4.882,0-8.828-3.955-8.828-8.828V282.483c0-4.873,3.946-8.828,8.828-8.828
			s8.828,3.955,8.828,8.828v158.897C264.828,446.252,260.882,450.207,256,450.207"/>
		<path style="fill:#95A5A5;" d="M441.379,450.207c-4.882,0-8.828-3.955-8.828-8.828v-8.828c0-29.21-23.755-52.966-52.966-52.966
			H132.414c-29.21,0-52.966,23.755-52.966,52.966v8.828c0,4.873-3.946,8.828-8.828,8.828s-8.828-3.955-8.828-8.828v-8.828
			c0-38.938,31.682-70.621,70.621-70.621h247.172c38.938,0,70.621,31.682,70.621,70.621v8.828
			C450.207,446.252,446.261,450.207,441.379,450.207"/>
	</g>
	<polygon style="fill:#4482C3;" points="17.655,512 123.586,512 123.586,441.379 17.655,441.379 	"/>
	<polygon style="fill:#ECF0F1;" points="17.655,282.483 494.345,282.483 494.345,0 17.655,0 	"/>
	<polygon style="fill:#F0C419;" points="203.034,512 308.966,512 308.966,441.379 203.034,441.379 	"/>
	<polygon style="fill:#894B9D;" points="388.414,512 494.345,512 494.345,441.379 388.414,441.379 	"/>
	<polygon style="fill:#35495E;" points="17.655,70.621 494.345,70.621 494.345,0 17.655,0 	"/>
	<path style="fill:#C03A2B;" d="M61.793,44.138h-8.828c-4.882,0-8.828-3.955-8.828-8.828s3.946-8.828,8.828-8.828h8.828
		c4.882,0,8.828,3.955,8.828,8.828S66.675,44.138,61.793,44.138"/>
	<path style="fill:#F0C419;" d="M105.931,44.138h-8.828c-4.882,0-8.828-3.955-8.828-8.828s3.946-8.828,8.828-8.828h8.828
		c4.882,0,8.828,3.955,8.828,8.828S110.813,44.138,105.931,44.138"/>
	<path style="fill:#13A085;" d="M150.069,44.138h-8.828c-4.882,0-8.828-3.955-8.828-8.828s3.946-8.828,8.828-8.828h8.828
		c4.882,0,8.828,3.955,8.828,8.828S154.951,44.138,150.069,44.138"/>
	<path style="fill:#C03A2B;" d="M370.759,141.241H141.241c-4.882,0-8.828-3.955-8.828-8.828c0-4.873,3.946-8.828,8.828-8.828
		h229.517c4.882,0,8.828,3.955,8.828,8.828C379.586,137.287,375.64,141.241,370.759,141.241"/>
	<path style="fill:#F0C419;" d="M388.414,185.379H123.586c-4.882,0-8.828-3.955-8.828-8.828c0-4.873,3.946-8.828,8.828-8.828
		h264.828c4.882,0,8.828,3.955,8.828,8.828C397.241,181.425,393.295,185.379,388.414,185.379"/>
	<path style="fill:#13A085;" d="M406.069,229.517H105.931c-4.882,0-8.828-3.955-8.828-8.828c0-4.873,3.946-8.828,8.828-8.828
		h300.138c4.882,0,8.828,3.955,8.828,8.828C414.897,225.562,410.951,229.517,406.069,229.517"/>
</g>
</svg>