<?xml version="1.0" encoding="iso-8859-1"?>
<!-- Uploaded to: SVG Repo, www.svgrepo.com, Generator: SVG Repo Mixer Tools -->
<svg version="1.1" id="Layer_1" xmlns="http://www.w3.org/2000/svg" xmlns:xlink="http://www.w3.org/1999/xlink" 
	 viewBox="0 0 512 512" xml:space="preserve">
<rect x="80.764" y="222.745" style="fill:#F77935;" width="121.76" height="73.169"/>
<rect x="169.276" y="222.745" style="fill:#D9510D;" width="33.259" height="73.169"/>
<rect x="156.227" y="12.103" style="fill:#FFDB56;" width="199.552" height="88.69"/>
<rect x="322.521" y="12.103" style="fill:#FBA806;" width="33.259" height="88.69"/>
<rect x="304.317" y="222.745" style="fill:#F77935;" width="121.76" height="73.169"/>
<rect x="393.927" y="222.745" style="fill:#D9510D;" width="32.15" height="73.169"/>
<rect x="381.921" y="426.731" style="fill:#3FC8F2;" width="121.76" height="73.169"/>
<rect x="470.455" y="426.731" style="fill:#0DAACE;" width="33.259" height="73.169"/>
<rect x="192.546" y="426.731" style="fill:#3FC8F2;" width="121.76" height="73.169"/>
<rect x="281.047" y="426.731" style="fill:#0DAACE;" width="33.259" height="73.169"/>
<rect x="8.315" y="426.731" style="fill:#3FC8F2;" width="121.76" height="73.169"/>
<rect x="96.816" y="426.731" style="fill:#0DAACE;" width="33.259" height="73.169"/>
<path d="M503.685,418.413h-52.568v-58.757c0-4.593-3.722-8.315-8.315-8.315h-69.289v-47.116h52.568c4.593,0,8.315-3.722,8.315-8.315
	v-73.169c0-4.593-3.722-8.315-8.315-8.315h-52.568v-49.334c0-4.593-3.722-8.315-8.315-8.315H264.315v-47.671h24.995
	c4.593,0,8.315-3.722,8.315-8.315s-3.722-8.315-8.315-8.315H164.539V20.418h182.923v72.061h-23.886
	c-4.593,0-8.315,3.722-8.315,8.315s3.722,8.315,8.315,8.315h32.201c4.593,0,8.315-3.722,8.315-8.315v-88.69
	c0-4.593-3.722-8.315-8.315-8.315H156.224c-4.593,0-8.315,3.722-8.315,8.315v88.69c0,4.593,3.722,8.315,8.315,8.315h91.461v47.671
	H141.647c-4.593,0-8.315,3.722-8.315,8.315v49.334H80.764c-4.593,0-8.315,3.722-8.315,8.315v73.169c0,4.593,3.722,8.315,8.315,8.315
	h52.568v47.116H69.197c-4.593,0-8.315,3.722-8.315,8.315v58.757H8.315c-4.593,0-8.315,3.722-8.315,8.315v73.169
	c0,4.593,3.722,8.315,8.315,8.315h121.765c4.593,0,8.315-3.722,8.315-8.315v-73.169c0-4.593-3.722-8.315-8.315-8.315H77.512v-50.442
	h167.597v50.442H192.54c-4.593,0-8.315,3.722-8.315,8.315v73.169c0,4.593,3.722,8.315,8.315,8.315H256
	c4.593,0,8.315-3.722,8.315-8.315c0-4.593-3.722-8.315-8.315-8.315h-55.145v-56.54h105.136v56.54h-15.726
	c-4.593,0-8.315,3.722-8.315,8.315c0,4.593,3.722,8.315,8.315,8.315h24.04c4.593,0,8.315-3.722,8.315-8.315v-73.169
	c0-4.593-3.722-8.315-8.315-8.315h-52.568v-50.442h172.75v50.442h-52.568c-4.593,0-8.315,3.722-8.315,8.315v73.169
	c0,4.593,3.722,8.315,8.315,8.315h121.765c4.593,0,8.315-3.722,8.315-8.315v-73.169C512,422.135,508.278,418.413,503.685,418.413z
	 M121.765,491.582H16.629v-56.54h105.135V491.582z M417.767,287.596H312.632v-56.54h105.135L417.767,287.596L417.767,287.596z
	 M149.961,304.225h4.295c4.593,0,8.315-3.722,8.315-8.315c0-4.593-3.722-8.315-8.315-8.315H89.079v-56.54h105.136v56.54h-5.694
	c-4.593,0-8.315,3.722-8.315,8.315c0,4.593,3.722,8.315,8.315,8.315h14.009c4.593,0,8.315-3.722,8.315-8.315v-73.169
	c0-4.593-3.722-8.315-8.315-8.315h-52.569v-41.019h206.923v41.019h-52.568c-4.593,0-8.315,3.722-8.315,8.315v73.169
	c0,4.593,3.722,8.315,8.315,8.315h52.568v47.116H149.961V304.225z M495.371,491.582H390.235v-56.54h105.135L495.371,491.582
	L495.371,491.582z"/>
</svg>